<svg xmlns="http://www.w3.org/2000/svg" width="256" height="256" viewBox="0 0 100 100"><rect width="100" height="100" rx="50" fill="#0b2447"></rect><path d="M29.44 77.28L25.79 77.28Q25.03 77.28 24.54 76.79Q24.05 76.30 24.05 75.54L24.05 75.54L24.05 39.51Q24.05 38.75 24.54 38.26Q25.03 37.76 25.79 37.76L25.79 37.76L29.44 37.76Q30.20 37.76 30.70 38.26Q31.19 38.75 31.19 39.51L31.19 39.51L31.19 75.54Q31.19 76.30 30.70 76.79Q30.20 77.28 29.44 77.28L29.44 77.28ZM29.97 30.39L25.19 30.39Q24.43 30.39 23.93 29.90Q23.44 29.40 23.44 28.64L23.44 28.64L23.44 24.54Q23.44 23.78 23.93 23.25Q24.43 22.72 25.19 22.72L25.19 22.72L29.97 22.72Q30.73 22.72 31.27 23.25Q31.80 23.78 31.80 24.54L31.80 24.54L31.80 28.64Q31.80 29.40 31.27 29.90Q30.73 30.39 29.97 30.39L29.97 30.39ZM59.46 77.28L56.19 77.28Q55.05 77.28 54.41 76.75Q53.76 76.22 53.38 75.38L53.38 75.38L39.32 40.12Q39.17 39.74 39.17 39.36L39.17 39.36Q39.17 38.68 39.63 38.22Q40.08 37.76 40.77 37.76L40.77 37.76L44.41 37.76Q45.25 37.76 45.71 38.22Q46.16 38.68 46.31 39.06L46.31 39.06L57.87 69L69.42 39.06Q69.57 38.68 69.99 38.22Q70.41 37.76 71.24 37.76L71.24 37.76L74.97 37.76Q75.57 37.76 76.07 38.22Q76.56 38.68 76.56 39.36L76.56 39.36Q76.56 39.74 76.41 40.12L76.41 40.12L62.27 75.38Q61.97 76.22 61.32 76.75Q60.68 77.28 59.46 77.28L59.46 77.28Z" fill="#f8e71c"></path></svg>